<?xml version="1.0" encoding="UTF-8"?>
<svg version="1.1" xmlns="http://www.w3.org/2000/svg" width="750" height="750">
<path d="M0 0 C4.24846075 0.47205119 6.26819288 2.88877522 9 6 C9 6.66 9 7.32 9 8 C9.66 8 10.32 8 11 8 C12.33203125 9.390625 12.33203125 9.390625 13.8125 11.25 C16.30453757 14.26954917 18.92280389 16.57063465 22 19 C23.35386936 20.65002828 24.68678142 22.3174387 26 24 C26.86625 24.845625 27.7325 25.69125 28.625 26.5625 C31 29 31 29 32 31.1875 C32.88466342 33.24593128 32.88466342 33.24593128 35.375 33.9375 C38.71866958 35.29089007 39.83348831 37.15645341 42 40 C43.2065625 40.9590625 43.2065625 40.9590625 44.4375 41.9375 C47.48276683 44.38856843 49.63293855 46.88900496 52 50 C52 50.66 52 51.32 52 52 C52.598125 52.226875 53.19625 52.45375 53.8125 52.6875 C56.56351888 54.33811133 57.52484637 56.1972081 59 59 C57.38405168 61.04119788 55.7143618 63.04072937 54 65 C53.34 65 52.68 65 52 65 C51.65020081 65.83679291 51.65020081 65.83679291 51.29333496 66.69049072 C49.66795755 69.59292846 47.65801345 71.59642509 45.30664062 73.95214844 C44.59413399 74.66991203 44.59413399 74.66991203 43.86723328 75.4021759 C42.30188647 76.97629809 40.72937006 78.54302394 39.15625 80.109375 C38.06501471 81.2019577 36.97407645 82.29483712 35.88342285 83.38800049 C33.60016205 85.67420649 31.31333087 87.9567638 29.02392578 90.23681641 C26.08470373 93.16461727 23.15458691 96.10134092 20.22705841 99.0408287 C17.97794566 101.29715329 15.72411 103.54871137 13.46879578 105.79883575 C12.38601201 106.88028255 11.30471969 107.96322471 10.22492981 109.04766083 C8.71918137 110.55846632 7.2072098 112.06274863 5.69335938 113.56542969 C4.83335327 114.4238446 3.97334717 115.28225952 3.08728027 116.16668701 C1 118 1 118 -1 118 C-1.20625 118.53625 -1.4125 119.0725 -1.625 119.625 C-3.53250426 122.91978009 -6.04819384 125.59363628 -9 128 C-9.66 128 -10.32 128 -11 128 C-11.20560547 128.53012695 -11.41121094 129.06025391 -11.62304688 129.60644531 C-13.57424384 132.99820684 -16.27544382 135.56050587 -19.03125 138.296875 C-19.62296997 138.89050842 -20.21468994 139.48414185 -20.82434082 140.09576416 C-22.07265581 141.34543718 -23.32348823 142.59259992 -24.57666016 143.83740234 C-26.50007997 145.75007952 -28.41256099 147.67323119 -30.32421875 149.59765625 C-31.53842139 150.81053798 -32.75324393 152.02279952 -33.96875 153.234375 C-34.54274536 153.81241882 -35.11674072 154.39046265 -35.70812988 154.98602295 C-39.77006566 159 -39.77006566 159 -42 159 C-42.40943848 159.89643219 -42.40943848 159.89643219 -42.82714844 160.81097412 C-43.96699868 162.9384059 -45.07214943 164.32540472 -46.765625 166.02441406 C-47.31959961 166.58469299 -47.87357422 167.14497192 -48.44433594 167.722229 C-49.04020508 168.31404968 -49.63607422 168.90587036 -50.25 169.515625 C-50.86391602 170.13145447 -51.47783203 170.74728394 -52.11035156 171.3817749 C-53.40574483 172.67852646 -54.70365644 173.97276657 -56.00390625 175.26464844 C-57.99975068 177.24975202 -59.98466726 179.24533591 -61.96875 181.2421875 C-63.22852555 182.50064211 -64.48892101 183.75847654 -65.75 185.015625 C-66.34586914 185.6155426 -66.94173828 186.21546021 -67.55566406 186.83355713 C-71.77006753 191 -71.77006753 191 -74 191 C-74.20560547 191.53012695 -74.41121094 192.06025391 -74.62304688 192.60644531 C-76.57424384 195.99820684 -79.27544382 198.56050587 -82.03125 201.296875 C-82.62296997 201.89050842 -83.21468994 202.48414185 -83.82434082 203.09576416 C-85.07265581 204.34543718 -86.32348823 205.59259992 -87.57666016 206.83740234 C-89.50007997 208.75007952 -91.41256099 210.67323119 -93.32421875 212.59765625 C-94.53842139 213.81053798 -95.75324393 215.02279952 -96.96875 216.234375 C-97.54274536 216.81241882 -98.11674072 217.39046265 -98.70812988 217.98602295 C-102.77006566 222 -102.77006566 222 -105 222 C-105.309375 222.804375 -105.309375 222.804375 -105.625 223.625 C-107.53250426 226.91978009 -110.04819384 229.59363628 -113 232 C-113.66 232 -114.32 232 -115 232 C-115.23319946 232.55786194 -115.46639893 233.11572388 -115.70666504 233.69049072 C-117.33204245 236.59292846 -119.34198655 238.59642509 -121.69335938 240.95214844 C-122.40586601 241.66991203 -122.40586601 241.66991203 -123.13276672 242.4021759 C-124.69811353 243.97629809 -126.27062994 245.54302394 -127.84375 247.109375 C-128.93498529 248.2019577 -130.02592355 249.29483712 -131.11657715 250.38800049 C-133.39983795 252.67420649 -135.68666913 254.9567638 -137.97607422 257.23681641 C-140.91529627 260.16461727 -143.84541309 263.10134092 -146.77294159 266.0408287 C-149.02205434 268.29715329 -151.27589 270.54871137 -153.53120422 272.79883575 C-154.61398799 273.88028255 -155.69528031 274.96322471 -156.77507019 276.04766083 C-158.28081863 277.55846632 -159.7927902 279.06274863 -161.30664062 280.56542969 C-162.16664673 281.4238446 -163.02665283 282.28225952 -163.91271973 283.16668701 C-166 285 -166 285 -168 285 C-168.309375 285.804375 -168.309375 285.804375 -168.625 286.625 C-170.53250426 289.91978009 -173.04819384 292.59363628 -176 295 C-176.66 295 -177.32 295 -178 295 C-178.20560547 295.53012695 -178.41121094 296.06025391 -178.62304688 296.60644531 C-180.57424384 299.99820684 -183.27544382 302.56050587 -186.03125 305.296875 C-186.91882996 306.18732513 -186.91882996 306.18732513 -187.82434082 307.09576416 C-189.07265581 308.34543718 -190.32348823 309.59259992 -191.57666016 310.83740234 C-193.50007997 312.75007952 -195.41256099 314.67323119 -197.32421875 316.59765625 C-198.53842139 317.81053798 -199.75324393 319.02279952 -200.96875 320.234375 C-201.54274536 320.81241882 -202.11674072 321.39046265 -202.70812988 321.98602295 C-206.77006566 326 -206.77006566 326 -209 326 C-209.20625 326.53625 -209.4125 327.0725 -209.625 327.625 C-211.53250426 330.91978009 -214.04819384 333.59363628 -217 336 C-217.66 336 -218.32 336 -219 336 C-219.23319946 336.55786194 -219.46639893 337.11572388 -219.70666504 337.69049072 C-221.33204245 340.59292846 -223.34198655 342.59642509 -225.69335938 344.95214844 C-226.1683638 345.4306575 -226.64336823 345.90916656 -227.13276672 346.4021759 C-228.69811353 347.97629809 -230.27062994 349.54302394 -231.84375 351.109375 C-232.93498529 352.2019577 -234.02592355 353.29483712 -235.11657715 354.38800049 C-237.39983795 356.67420649 -239.68666913 358.9567638 -241.97607422 361.23681641 C-244.91529627 364.16461727 -247.84541309 367.10134092 -250.77294159 370.0408287 C-253.02205434 372.29715329 -255.27589 374.54871137 -257.53120422 376.79883575 C-258.61398799 377.88028255 -259.69528031 378.96322471 -260.77507019 380.04766083 C-262.28081863 381.55846632 -263.7927902 383.06274863 -265.30664062 384.56542969 C-266.16664673 385.4238446 -267.02665283 386.28225952 -267.91271973 387.16668701 C-270 389 -270 389 -272 389 C-272.20625 389.53625 -272.4125 390.0725 -272.625 390.625 C-274.53250426 393.91978009 -277.04819384 396.59363628 -280 399 C-280.66 399 -281.32 399 -282 399 C-282.20560547 399.53012695 -282.41121094 400.06025391 -282.62304688 400.60644531 C-284.57424384 403.99820684 -287.27544382 406.56050587 -290.03125 409.296875 C-290.62296997 409.89050842 -291.21468994 410.48414185 -291.82434082 411.09576416 C-293.07265581 412.34543718 -294.32348823 413.59259992 -295.57666016 414.83740234 C-297.50007997 416.75007952 -299.41256099 418.67323119 -301.32421875 420.59765625 C-302.53842139 421.81053798 -303.75324393 423.02279952 -304.96875 424.234375 C-305.54274536 424.81241882 -306.11674072 425.39046265 -306.70812988 425.98602295 C-310.77006566 430 -310.77006566 430 -313 430 C-313.20625 430.53625 -313.4125 431.0725 -313.625 431.625 C-315.53250426 434.91978009 -318.04819384 437.59363628 -321 440 C-321.66 440 -322.32 440 -323 440 C-323.34979919 440.83679291 -323.34979919 440.83679291 -323.70666504 441.69049072 C-325.33204245 444.59292846 -327.34198655 446.59642509 -329.69335938 448.95214844 C-330.1683638 449.4306575 -330.64336823 449.90916656 -331.13276672 450.4021759 C-332.69811353 451.97629809 -334.27062994 453.54302394 -335.84375 455.109375 C-336.93498529 456.2019577 -338.02592355 457.29483712 -339.11657715 458.38800049 C-341.39983795 460.67420649 -343.68666913 462.9567638 -345.97607422 465.23681641 C-348.91529627 468.16461727 -351.84541309 471.10134092 -354.77294159 474.0408287 C-357.02205434 476.29715329 -359.27589 478.54871137 -361.53120422 480.79883575 C-362.61398799 481.88028255 -363.69528031 482.96322471 -364.77507019 484.04766083 C-366.28081863 485.55846632 -367.7927902 487.06274863 -369.30664062 488.56542969 C-370.16664673 489.4238446 -371.02665283 490.28225952 -371.91271973 491.16668701 C-374 493 -374 493 -376 493 C-376.28875 493.61875 -376.5775 494.2375 -376.875 494.875 C-378 497 -378 497 -380 499 C-380.99 499 -381.98 499 -383 499 C-383.33 499.99 -383.66 500.98 -384 502 C-384.66 502 -385.32 502 -386 502 C-386 502.66 -386 503.32 -386 504 C-387.65 504.33 -389.3 504.66 -391 505 C-391 505.66 -391 506.32 -391 507 C-397.26625628 509.45652968 -402.77805754 510.52062153 -409.5 510.4375 C-410.33225098 510.43282715 -411.16450195 510.4281543 -412.02197266 510.42333984 C-418.13093062 510.27574569 -422.75057522 509.22095853 -428 506 C-429.66194738 505.32165413 -431.32598903 504.64800425 -433 504 C-433 503.34 -433 502.68 -433 502 C-433.99 501.67 -434.98 501.34 -436 501 C-436 500.34 -436 499.68 -436 499 C-436.99 498.67 -437.98 498.34 -439 498 C-439 497.34 -439 496.68 -439 496 C-439.99 495.67 -440.98 495.34 -442 495 C-442 494.34 -442 493.68 -442 493 C-442.66 493 -443.32 493 -444 493 C-444.65357278 491.77493102 -445.29748233 490.54470484 -445.9375 489.3125 C-446.29714844 488.62800781 -446.65679687 487.94351562 -447.02734375 487.23828125 C-449.47658448 481.60207667 -449.18329303 475.71608318 -449.1875 469.6875 C-449.19974609 468.77548828 -449.21199219 467.86347656 -449.22460938 466.92382812 C-449.2407648 459.41155324 -448.66996225 452.22661634 -444 446 C-443.34 446 -442.68 446 -442 446 C-441.773125 445.29875 -441.54625 444.5975 -441.3125 443.875 C-438.54460942 437.81200159 -433.89660537 433.96184283 -428.91796875 429.73046875 C-427.1946154 428.17558987 -425.75739532 426.62203767 -424.3125 424.8125 C-422.06695376 422.08143025 -419.75432191 420.1893328 -417 418 C-416.0409375 416.7934375 -416.0409375 416.7934375 -415.0625 415.5625 C-412.67244009 412.59303163 -409.92403212 410.43669344 -407 408 C-405.66172696 406.33729713 -404.32810215 404.67083819 -403 403 C-401.33333333 401.66666667 -399.66666667 400.33333333 -398 399 C-397.401875 398.236875 -396.80375 397.47375 -396.1875 396.6875 C-394.25203427 394.3096421 -392.38468972 392.53679613 -390.0625 390.5625 C-387.57427106 388.44289757 -385.35139138 386.36756642 -383.3125 383.8125 C-381.06695376 381.08143025 -378.75432191 379.1893328 -376 377 C-375.401875 376.236875 -374.80375 375.47375 -374.1875 374.6875 C-372.25203427 372.3096421 -370.38468972 370.53679613 -368.0625 368.5625 C-365.57427106 366.44289757 -363.35139138 364.36756642 -361.3125 361.8125 C-359.06695376 359.08143025 -356.75432191 357.1893328 -354 355 C-353.0409375 353.7934375 -353.0409375 353.7934375 -352.0625 352.5625 C-349.67244009 349.59303163 -346.92403212 347.43669344 -344 345 C-342.66172696 343.33729713 -341.32810215 341.67083819 -340 340 C-338.33333333 338.66666667 -336.66666667 337.33333333 -335 336 C-334.401875 335.236875 -333.80375 334.47375 -333.1875 333.6875 C-331.25203427 331.3096421 -329.38468972 329.53679613 -327.0625 327.5625 C-324.57427106 325.44289757 -322.35139138 323.36756642 -320.3125 320.8125 C-318.06695376 318.08143025 -315.75432191 316.1893328 -313 314 C-312.0409375 312.7934375 -312.0409375 312.7934375 -311.0625 311.5625 C-308.67244009 308.59303163 -305.92403212 306.43669344 -303 304 C-301.66172696 302.33729713 -300.32810215 300.67083819 -299 299 C-297.33333333 297.66666667 -295.66666667 296.33333333 -294 295 C-293.401875 294.236875 -292.80375 293.47375 -292.1875 292.6875 C-290.25203427 290.3096421 -288.38468972 288.53679613 -286.0625 286.5625 C-283.57427106 284.44289757 -281.35139138 282.36756642 -279.3125 279.8125 C-277.06695376 277.08143025 -274.75432191 275.1893328 -272 273 C-271.401875 272.236875 -270.80375 271.47375 -270.1875 270.6875 C-268.25203427 268.3096421 -266.38468972 266.53679613 -264.0625 264.5625 C-261.57427106 262.44289757 -259.35139138 260.36756642 -257.3125 257.8125 C-255.06695376 255.08143025 -252.75432191 253.1893328 -250 251 C-249.0409375 249.7934375 -249.0409375 249.7934375 -248.0625 248.5625 C-245.67244009 245.59303163 -242.92403212 243.43669344 -240 241 C-238.66172696 239.33729713 -237.32810215 237.67083819 -236 236 C-234.33333333 234.66666667 -232.66666667 233.33333333 -231 232 C-230.401875 231.236875 -229.80375 230.47375 -229.1875 229.6875 C-227.25203427 227.3096421 -225.38468972 225.53679613 -223.0625 223.5625 C-220.57427106 221.44289757 -218.35139138 219.36756642 -216.3125 216.8125 C-214.06695376 214.08143025 -211.75432191 212.1893328 -209 210 C-208.0409375 208.7934375 -208.0409375 208.7934375 -207.0625 207.5625 C-204.67244009 204.59303163 -201.92403212 202.43669344 -199 200 C-197.66172696 198.33729713 -196.32810215 196.67083819 -195 195 C-193.33333333 193.66666667 -191.66666667 192.33333333 -190 191 C-189.401875 190.236875 -188.80375 189.47375 -188.1875 188.6875 C-186.25203427 186.3096421 -184.38468972 184.53679613 -182.0625 182.5625 C-179.57427106 180.44289757 -177.35139138 178.36756642 -175.3125 175.8125 C-173.06695376 173.08143025 -170.75432191 171.1893328 -168 169 C-167.401875 168.236875 -166.80375 167.47375 -166.1875 166.6875 C-164.25203427 164.3096421 -162.38468972 162.53679613 -160.0625 160.5625 C-157.57427106 158.44289757 -155.35139138 156.36756642 -153.3125 153.8125 C-151.06695376 151.08143025 -148.75432191 149.1893328 -146 147 C-145.360625 146.195625 -144.72125 145.39125 -144.0625 144.5625 C-141.67244009 141.59303163 -138.92403212 139.43669344 -136 137 C-134.66172696 135.33729713 -133.32810215 133.67083819 -132 132 C-130.33333333 130.66666667 -128.66666667 129.33333333 -127 128 C-126.401875 127.236875 -125.80375 126.47375 -125.1875 125.6875 C-123.25203427 123.3096421 -121.38468972 121.53679613 -119.0625 119.5625 C-116.57427106 117.44289757 -114.35139138 115.36756642 -112.3125 112.8125 C-110.06695376 110.08143025 -107.75432191 108.1893328 -105 106 C-104.360625 105.195625 -103.72125 104.39125 -103.0625 103.5625 C-100.67244009 100.59303163 -97.92403212 98.43669344 -95 96 C-93.66172696 94.33729713 -92.32810215 92.67083819 -91 91 C-89.33333333 89.66666667 -87.66666667 88.33333333 -86 87 C-85.401875 86.236875 -84.80375 85.47375 -84.1875 84.6875 C-82.25203427 82.3096421 -80.38468972 80.53679613 -78.0625 78.5625 C-75.57427106 76.44289757 -73.35139138 74.36756642 -71.3125 71.8125 C-69.06695376 69.08143025 -66.75432191 67.1893328 -64 65 C-63.401875 64.236875 -62.80375 63.47375 -62.1875 62.6875 C-60.25203427 60.3096421 -58.38468972 58.53679613 -56.0625 56.5625 C-53.57427106 54.44289757 -51.35139138 52.36756642 -49.3125 49.8125 C-47.06695376 47.08143025 -44.75432191 45.1893328 -42 43 C-41.360625 42.195625 -40.72125 41.39125 -40.0625 40.5625 C-37.67244009 37.59303163 -34.92403212 35.43669344 -32 33 C-30.66172696 31.33729713 -29.32810215 29.67083819 -28 28 C-26.33333333 26.66666667 -24.66666667 25.33333333 -23 24 C-22.401875 23.236875 -21.80375 22.47375 -21.1875 21.6875 C-19.25203427 19.3096421 -17.38468972 17.53679613 -15.0625 15.5625 C-12.57427106 13.44289757 -10.35139138 11.36756642 -8.3125 8.8125 C-6.0778087 6.09463221 -3.76437182 4.15006697 -1 2 C-0.67 1.34 -0.34 0.68 0 0 Z " fill="#020101" transform="translate(449,216)"/>
<path d="M0 0 C5.10863896 -0.0246501 10.21724359 -0.04283607 15.32592773 -0.05493164 C17.06519168 -0.05997204 18.80445136 -0.0668043 20.54370117 -0.07543945 C23.03825937 -0.08751792 25.53276173 -0.09323108 28.02734375 -0.09765625 C28.80963852 -0.10281754 29.59193329 -0.10797882 30.39793396 -0.11329651 C32.26567114 -0.11349226 34.13329204 -0.06199694 36 0 C36.495 0.495 36.495 0.495 37 1 C39.46256263 1.15487308 41.90000808 1.24645497 44.36547852 1.29711914 C45.13615662 1.31677231 45.90683472 1.33642548 46.7008667 1.35667419 C49.26012311 1.42078394 51.81948625 1.47798223 54.37890625 1.53515625 C56.14868689 1.57814388 57.91845717 1.62156032 59.68821716 1.66539001 C64.35540419 1.77981794 69.02270997 1.88839585 73.69006348 1.99578857 C78.44905938 2.10631474 83.20792108 2.22232805 87.96679688 2.33789062 C97.31107427 2.56398846 106.65548616 2.7839113 116 3 C116 3.66 116 4.32 116 5 C117.25554687 4.98839844 118.51109375 4.97679687 119.8046875 4.96484375 C137.09604617 4.85265186 137.09604617 4.85265186 145 6 C145.33 6.33 145.66 6.66 146 7 C148.34723966 7.397493 150.70328548 7.74368723 153.0625 8.0625 C154.35285156 8.23910156 155.64320313 8.41570313 156.97265625 8.59765625 C157.97167969 8.73042969 158.97070312 8.86320312 160 9 C160 9.66 160 10.32 160 11 C161.5778125 10.9690625 161.5778125 10.9690625 163.1875 10.9375 C166.32704904 10.98896802 168.96883396 11.26517187 172 12 C172 12.66 172 13.32 172 14 C172.68707031 14.06058594 173.37414062 14.12117188 174.08203125 14.18359375 C175.43361328 14.30927734 175.43361328 14.30927734 176.8125 14.4375 C177.70582031 14.51871094 178.59914063 14.59992187 179.51953125 14.68359375 C182 15 182 15 185 16 C185 16.66 185 17.32 185 18 C187.97 18.33 190.94 18.66 194 19 C194 19.66 194 20.32 194 21 C195.98 21.33 197.96 21.66 200 22 C200 22.66 200 23.32 200 24 C202.31 24.33 204.62 24.66 207 25 C207 25.66 207 26.32 207 27 C208.98 27.33 210.96 27.66 213 28 C213 28.66 213 29.32 213 30 C214.98 30.33 216.96 30.66 219 31 C219 31.66 219 32.32 219 33 C219.804375 33.14695312 219.804375 33.14695312 220.625 33.296875 C223.70206166 34.2078472 226.2190181 35.65093541 229 37.25 C230.03125 37.83265625 231.0625 38.4153125 232.125 39.015625 C235.09407479 41.06493205 236.85810636 43.12535327 239 46 C239.825 46.66 240.65 47.32 241.5 48 C244 50 244 50 245.9375 52.4375 C247.98692404 55.15604996 247.98692404 55.15604996 251 57.5 C253.79677112 59.8306426 255.74852266 62.16749625 258 65 C259.2375 65.99 259.2375 65.99 260.5 67 C263 69 263 69 264.9375 71.4375 C266.98692404 74.15604996 266.98692404 74.15604996 270 76.5 C272.79677112 78.8306426 274.74852266 81.16749625 277 84 C278.2375 84.99 278.2375 84.99 279.5 86 C282 88 282 88 283.9375 90.4375 C285.65645033 92.57316556 287.13803439 94.0058412 289.25 95.6875 C290.1575 96.450625 291.065 97.21375 292 98 C292 98.66 292 99.32 292 100 C292.99 100.33 293.98 100.66 295 101 C296.34423339 102.65788785 297.67618483 104.32576317 299 106 C300.2375 106.99 300.2375 106.99 301.5 108 C304 110 304 110 305.9375 112.4375 C308.37105233 115.46100441 310.98189894 117.55983318 314 120 C315.875 121.5625 315.875 121.5625 317 123 C317 124.32 317 125.64 317 127 C316.34 127 315.68 127 315 127 C314.67 128.65 314.34 130.3 314 132 C313.01 132.33 312.02 132.66 311 133 C310.67 134.98 310.34 136.96 310 139 C309.34 139 308.68 139 308 139 C307.67 143.29 307.34 147.58 307 152 C306.34 152 305.68 152 305 152 C305.66 152.99 306.32 153.98 307 155 C307.30418749 156.82512495 307.54673093 158.66089892 307.75 160.5 C309.23197387 170.05178473 313.24696899 177.27752473 321 183 C321 183.66 321 184.32 321 185 C321.99 185.33 322.98 185.66 324 186 C324 186.66 324 187.32 324 188 C324.99 188.33 325.98 188.66 327 189 C327 189.66 327 190.32 327 191 C327.99 191.33 328.98 191.66 330 192 C330 192.66 330 193.32 330 194 C331.32 194.33 332.64 194.66 334 195 C334 195.66 334 196.32 334 197 C335.65 197.33 337.3 197.66 339 198 C339 198.66 339 199.32 339 200 C344.99052133 200.86202638 350.82361918 201.16024618 356.87109375 201.2109375 C358.76368066 201.23899696 360.65625868 201.26766136 362.54882812 201.296875 C365.49552237 201.3380978 368.44204882 201.37504064 371.38891602 201.40136719 C374.25831123 201.42914403 377.12698254 201.47499452 379.99609375 201.5234375 C381.29963051 201.5283168 381.29963051 201.5283168 382.62950134 201.53329468 C388.42860088 201.64843325 393.72018653 202.47753211 399 205 C401.25 207.4375 401.25 207.4375 403 210 C404.2375 210.99 404.2375 210.99 405.5 212 C408 214 408 214 409.9375 216.4375 C411.97577364 219.18853619 411.97577364 219.18853619 415.1875 221.375 C418 224 418 224 419.1875 227.4375 C418.93061399 232.31833418 417.49288537 233.66957441 414 237 C413.34 237 412.68 237 412 237 C411.67 237.99 411.34 238.98 411 240 C409.34211215 241.34423339 407.67423683 242.67618483 406 244 C405.34 244.825 404.68 245.65 404 246.5 C401.90258073 249.12177409 399.62562945 250.92713465 397 253 C396.34 253.99 395.68 254.98 395 256 C394.34 256 393.68 256 393 256 C392.67 256.99 392.34 257.98 392 259 C391.34 259 390.68 259 390 259 C389.67 259.99 389.34 260.98 389 262 C387.34211215 263.34423339 385.67423683 264.67618483 384 266 C383.34 266.825 382.68 267.65 382 268.5 C379.90258073 271.12177409 377.62562945 272.92713465 375 275 C374.34 275.99 373.68 276.98 373 278 C372.34 278 371.68 278 371 278 C370.67 278.99 370.34 279.98 370 281 C368.34211215 282.34423339 366.67423683 283.67618483 365 285 C364.34 285.825 363.68 286.65 363 287.5 C361 290 361 290 358.5625 291.9375 C356.42683444 293.65645033 354.9941588 295.13803439 353.3125 297.25 C352.549375 298.1575 351.78625 299.065 351 300 C350.34 300 349.68 300 349 300 C348.67 300.99 348.34 301.98 348 303 C346.34211215 304.34423339 344.67423683 305.67618483 343 307 C342.34 307.825 341.68 308.65 341 309.5 C338.90258073 312.12177409 336.62562945 313.92713465 334 316 C333.34 316.99 332.68 317.98 332 319 C331.34 319 330.68 319 330 319 C329.67 319.99 329.34 320.98 329 322 C327.02 322 325.04 322 323 322 C322.67 321.01 322.34 320.02 322 319 C321.01 318.67 320.02 318.34 319 318 C319 317.34 319 316.68 319 316 C318.01 315.67 317.02 315.34 316 315 C314.66104368 313.33784732 313.32869858 311.67036393 312 310 C310.93545062 309.08192425 309.8514876 308.18591487 308.75 307.3125 C307.8425 306.549375 306.935 305.78625 306 305 C306 304.34 306 303.68 306 303 C305.01 302.67 304.02 302.34 303 302 C299.30395719 296.69244576 299.60852171 291.55602993 299.70703125 285.3515625 C299.71127609 284.33903412 299.71552094 283.32650574 299.71989441 282.28329468 C299.73662698 279.06358752 299.77426974 275.84451656 299.8125 272.625 C299.82755382 270.43620698 299.841241 268.24740411 299.85351562 266.05859375 C299.88651268 260.70551374 299.93665804 255.35280234 300 250 C299.34 250 298.68 250 298 250 C297.80664062 249.39671875 297.61328125 248.7934375 297.4140625 248.171875 C297.15367187 247.37265625 296.89328125 246.5734375 296.625 245.75 C296.24214844 244.56664062 296.24214844 244.56664062 295.8515625 243.359375 C295.05887299 240.99751144 295.05887299 240.99751144 293.8984375 238.890625 C293 237 293 237 293 234 C292.01 233.67 291.02 233.34 290 233 C290 232.34 290 231.68 290 231 C289.01 230.67 288.02 230.34 287 230 C287 229.34 287 228.68 287 228 C286.01 227.67 285.02 227.34 284 227 C284 226.34 284 225.68 284 225 C283.43410156 224.75378906 282.86820313 224.50757813 282.28515625 224.25390625 C278.74658642 222.31222947 276.05891093 219.51699451 273.12109375 216.77734375 C271.03357773 214.80734668 271.03357773 214.80734668 268 214 C268 213.34 268 212.68 268 212 C265.36 211.67 262.72 211.34 260 211 C260 210.34 260 209.68 260 209 C253.73 209 247.46 209 241 209 C241 209.66 241 210.32 241 211 C238.36 211.33 235.72 211.66 233 212 C233 212.66 233 213.32 233 214 C232.360625 214.103125 231.72125 214.20625 231.0625 214.3125 C230.381875 214.539375 229.70125 214.76625 229 215 C228.67 215.99 228.34 216.98 228 218 C227.01 218 226.02 218 225 218 C225 218.66 225 219.32 225 220 C219.52380952 225 219.52380952 225 217 225 C216.67 225.99 216.34 226.98 216 228 C215.34 228 214.68 228 214 228 C213.67 228.99 213.34 229.98 213 231 C212.34 231 211.68 231 211 231 C210.731875 231.763125 210.46375 232.52625 210.1875 233.3125 C209.0333905 235.92443202 208.28712117 237.32864222 206 239 C204.68 239 203.36 239 202 239 C202 238.34 202 237.68 202 237 C201.01 236.67 200.02 236.34 199 236 C199 235.34 199 234.68 199 234 C198.01 233.67 197.02 233.34 196 233 C196 232.34 196 231.68 196 231 C195.01 230.67 194.02 230.34 193 230 C193 229.34 193 228.68 193 228 C192.01 227.67 191.02 227.34 190 227 C188.64613064 225.34997172 187.31321858 223.6825613 186 222 C185.01 221.34 184.02 220.68 183 220 C183 219.34 183 218.68 183 218 C182.01 217.67 181.02 217.34 180 217 C180 216.34 180 215.68 180 215 C179.01 214.67 178.02 214.34 177 214 C177 213.34 177 212.68 177 212 C176.01 211.67 175.02 211.34 174 211 C174 210.34 174 209.68 174 209 C173.01 208.67 172.02 208.34 171 208 C169.64613064 206.34997172 168.31321858 204.6825613 167 203 C166.01 202.34 165.02 201.68 164 201 C164 200.34 164 199.68 164 199 C163.01 198.67 162.02 198.34 161 198 C161 197.34 161 196.68 161 196 C160.01 195.67 159.02 195.34 158 195 C158 194.34 158 193.68 158 193 C157.01 192.67 156.02 192.34 155 192 C155 191.34 155 190.68 155 190 C154.01 189.67 153.02 189.34 152 189 C152 188.34 152 187.68 152 187 C151.01 186.67 150.02 186.34 149 186 C147.64613064 184.34997172 146.31321858 182.6825613 145 181 C144.01 180.34 143.02 179.68 142 179 C142 178.34 142 177.68 142 177 C141.01 176.67 140.02 176.34 139 176 C139 175.34 139 174.68 139 174 C138.01 173.67 137.02 173.34 136 173 C136 172.34 136 171.68 136 171 C135.01 170.67 134.02 170.34 133 170 C133 169.34 133 168.68 133 168 C132.01 167.67 131.02 167.34 130 167 C130 166.34 130 165.68 130 165 C129.34 165 128.68 165 128 165 C128.42371511 160.19789547 130.7110984 157.32585555 134 154 C135.64639965 152.64172029 137.31295807 151.30745749 139 150 C140.67798489 148.34472895 142.34298095 146.67625875 144 145 C145.36318359 143.65421875 145.36318359 143.65421875 146.75390625 142.28125 C147.68074219 141.3634375 148.60757813 140.445625 149.5625 139.5 C150.95662109 138.12328125 150.95662109 138.12328125 152.37890625 136.71875 C154.9970254 134.08771473 154.9970254 134.08771473 157.1015625 131.3671875 C158.87513261 129.15569885 160.64322534 127.43641061 162.8125 125.625 C169.76531066 120.03380307 169.76531066 120.03380307 175 113 C175.66 113 176.32 113 177 113 C177.66954571 109.15383184 177.80292395 105.83514263 177 102 C174.60609384 98.65693104 172.13981421 96.07284793 169.1875 93.21484375 C167 91 167 91 167 89 C166.2575 88.938125 165.515 88.87625 164.75 88.8125 C161.13934271 87.74571489 160.15540664 86.0175693 158 83 C155.87600133 80.62112149 155.13402591 80.0446753 152 79 C152 78.34 152 77.68 152 77 C151.443125 76.731875 150.88625 76.46375 150.3125 76.1875 C147.78774666 74.89100504 145.36285516 73.57523677 143 72 C143 71.34 143 70.68 143 70 C141.68 69.67 140.36 69.34 139 69 C139 68.34 139 67.68 139 67 C137.35 66.67 135.7 66.34 134 66 C134 65.34 134 64.68 134 64 C132.68 63.67 131.36 63.34 130 63 C130 62.34 130 61.68 130 61 C127.03 60.505 127.03 60.505 124 60 C124 59.34 124 58.68 124 58 C123.401875 57.855625 122.80375 57.71125 122.1875 57.5625 C120.43849596 57.1127561 118.71322977 56.57107659 117 56 C117 55.34 117 54.68 117 54 C115.02 53.67 113.04 53.34 111 53 C111 52.34 111 51.68 111 51 C110.154375 50.896875 109.30875 50.79375 108.4375 50.6875 C104.58557299 49.9171146 101.55924969 48.63725486 98 47 C98 46.34 98 45.68 98 45 C97.154375 44.896875 96.30875 44.79375 95.4375 44.6875 C91.58557299 43.9171146 88.55924969 42.63725486 85 41 C85 40.34 85 39.68 85 39 C83.02 38.67 81.04 38.34 79 38 C79 37.34 79 36.68 79 36 C77.88625 35.938125 76.7725 35.87625 75.625 35.8125 C70.9854978 35.25312739 67.42861652 33.3920545 63.34375 31.2109375 C60.6442857 29.81621428 57.9160899 28.84413129 55 28 C55 27.34 55 26.68 55 26 C54.154375 25.896875 53.30875 25.79375 52.4375 25.6875 C48.58557299 24.9171146 45.55924969 23.63725486 42 22 C42 21.34 42 20.68 42 20 C39.69 19.67 37.38 19.34 35 19 C35 18.34 35 17.68 35 17 C34.154375 16.896875 33.30875 16.79375 32.4375 16.6875 C28.65583874 15.93116775 25.50550539 14.58739867 22 13 C21.01 12.67 20.02 12.34 19 12 C19 11.34 19 10.68 19 10 C16.03 9.505 16.03 9.505 13 9 C13 8.34 13 7.68 13 7 C11.96875 6.896875 10.9375 6.79375 9.875 6.6875 C6.04916055 6.00872203 3.36629975 4.88841205 0 3 C0 2.01 0 1.02 0 0 Z " fill="#050505" transform="translate(331,27)"/>
<path d="M0 0 C1.98 0.495 1.98 0.495 4 1 C2.88412921 3.23174158 1.83437603 4.08395996 -0.08441848 5.6542598 C-4.15312495 9.0790446 -7.89940084 12.76427234 -11.64930439 16.53184319 C-12.39122466 17.2732088 -13.13314493 18.01457442 -13.89754763 18.77840567 C-16.38161867 21.26183519 -18.86209323 23.74882568 -21.34260559 26.23580933 C-23.14129276 28.03549271 -24.94020336 29.83495282 -26.73931807 31.6342088 C-30.64964214 35.54583497 -34.55841356 39.4590026 -38.46582603 43.37353706 C-44.27604386 49.19431506 -50.08916554 55.01218651 -55.90292511 60.82942679 C-65.68351367 70.6159946 -75.46191161 80.40474834 -85.23920631 90.19460678 C-99.20072438 104.1739604 -113.16646036 118.14909551 -127.13307042 132.12336154 C-132.73736044 137.73076076 -138.34151401 143.33829635 -143.94566631 148.94583321 C-144.56823636 149.56877803 -145.19080641 150.19172284 -145.83224222 150.83354478 C-160.64595195 165.65622394 -175.45831459 180.48024898 -190.27026367 195.3046875 C-190.91827852 195.95324675 -191.56629337 196.60180601 -192.23394503 197.27001857 C-207.36383014 212.41263718 -222.49307268 227.55589744 -237.62121582 242.70025635 C-238.59819157 243.67827788 -238.59819157 243.67827788 -239.5949042 244.67605741 C-242.87940895 247.96407998 -246.1639092 251.25210704 -249.44840922 254.54013433 C-250.09758399 255.19000587 -250.74675875 255.83987742 -251.41560548 256.50944204 C-252.72591229 257.82115561 -254.03621835 259.13286994 -255.34652365 260.44458502 C-276.97085516 282.0921405 -298.59856325 303.73631786 -320.23001775 325.37675572 C-323.28126724 328.42928188 -326.33247067 331.48185407 -329.3836422 334.53445816 C-329.98415231 335.13524962 -330.58466242 335.73604107 -331.2033698 336.35503833 C-340.88604198 346.04247594 -350.56500426 355.73361215 -360.24250888 365.42621174 C-369.95593538 375.15467468 -379.67285721 384.8796346 -389.39344881 394.60093836 C-395.17514637 400.38329194 -400.95398725 406.16846777 -406.72888284 411.95761472 C-411.02954138 416.26828323 -415.3353319 420.57378578 -419.64322015 424.87723066 C-421.39378203 426.62764015 -423.14262058 428.379775 -424.88963626 430.13372384 C-427.24851296 432.50148379 -429.61334861 434.86311966 -431.97990131 437.22320366 C-432.67053662 437.91937884 -433.36117193 438.61555402 -434.07273558 439.33282542 C-434.69897307 439.95482455 -435.32521056 440.57682369 -435.97042495 441.21767128 C-436.51135938 441.75914141 -437.05229382 442.30061154 -437.6096202 442.85848986 C-439 444 -439 444 -441 444 C-438.29281731 437.90883894 -433.92866363 434.00404679 -428.953125 429.765625 C-427.21803185 428.19710079 -425.76768545 426.63608683 -424.3125 424.8125 C-422.06695376 422.08143025 -419.75432191 420.1893328 -417 418 C-416.360625 417.195625 -415.72125 416.39125 -415.0625 415.5625 C-412.67244009 412.59303163 -409.92403212 410.43669344 -407 408 C-405.66172696 406.33729713 -404.32810215 404.67083819 -403 403 C-401.33333333 401.66666667 -399.66666667 400.33333333 -398 399 C-397.401875 398.236875 -396.80375 397.47375 -396.1875 396.6875 C-394.25203427 394.3096421 -392.38468972 392.53679613 -390.0625 390.5625 C-387.57427106 388.44289757 -385.35139138 386.36756642 -383.3125 383.8125 C-381.06695376 381.08143025 -378.75432191 379.1893328 -376 377 C-375.401875 376.236875 -374.80375 375.47375 -374.1875 374.6875 C-372.25203427 372.3096421 -370.38468972 370.53679613 -368.0625 368.5625 C-365.57427106 366.44289757 -363.35139138 364.36756642 -361.3125 361.8125 C-359.06695376 359.08143025 -356.75432191 357.1893328 -354 355 C-353.0409375 353.7934375 -353.0409375 353.7934375 -352.0625 352.5625 C-349.67244009 349.59303163 -346.92403212 347.43669344 -344 345 C-342.66172696 343.33729713 -341.32810215 341.67083819 -340 340 C-338.33333333 338.66666667 -336.66666667 337.33333333 -335 336 C-334.401875 335.236875 -333.80375 334.47375 -333.1875 333.6875 C-331.25203427 331.3096421 -329.38468972 329.53679613 -327.0625 327.5625 C-324.57427106 325.44289757 -322.35139138 323.36756642 -320.3125 320.8125 C-318.06695376 318.08143025 -315.75432191 316.1893328 -313 314 C-312.0409375 312.7934375 -312.0409375 312.7934375 -311.0625 311.5625 C-308.67244009 308.59303163 -305.92403212 306.43669344 -303 304 C-301.66172696 302.33729713 -300.32810215 300.67083819 -299 299 C-297.33333333 297.66666667 -295.66666667 296.33333333 -294 295 C-293.401875 294.236875 -292.80375 293.47375 -292.1875 292.6875 C-290.25203427 290.3096421 -288.38468972 288.53679613 -286.0625 286.5625 C-283.57427106 284.44289757 -281.35139138 282.36756642 -279.3125 279.8125 C-277.06695376 277.08143025 -274.75432191 275.1893328 -272 273 C-271.401875 272.236875 -270.80375 271.47375 -270.1875 270.6875 C-268.25203427 268.3096421 -266.38468972 266.53679613 -264.0625 264.5625 C-261.57427106 262.44289757 -259.35139138 260.36756642 -257.3125 257.8125 C-255.06695376 255.08143025 -252.75432191 253.1893328 -250 251 C-249.0409375 249.7934375 -249.0409375 249.7934375 -248.0625 248.5625 C-245.67244009 245.59303163 -242.92403212 243.43669344 -240 241 C-238.66172696 239.33729713 -237.32810215 237.67083819 -236 236 C-234.33333333 234.66666667 -232.66666667 233.33333333 -231 232 C-230.401875 231.236875 -229.80375 230.47375 -229.1875 229.6875 C-227.25203427 227.3096421 -225.38468972 225.53679613 -223.0625 223.5625 C-220.57427106 221.44289757 -218.35139138 219.36756642 -216.3125 216.8125 C-214.06695376 214.08143025 -211.75432191 212.1893328 -209 210 C-208.0409375 208.7934375 -208.0409375 208.7934375 -207.0625 207.5625 C-204.67244009 204.59303163 -201.92403212 202.43669344 -199 200 C-197.66172696 198.33729713 -196.32810215 196.67083819 -195 195 C-193.33333333 193.66666667 -191.66666667 192.33333333 -190 191 C-189.401875 190.236875 -188.80375 189.47375 -188.1875 188.6875 C-186.25203427 186.3096421 -184.38468972 184.53679613 -182.0625 182.5625 C-179.57427106 180.44289757 -177.35139138 178.36756642 -175.3125 175.8125 C-173.06695376 173.08143025 -170.75432191 171.1893328 -168 169 C-167.401875 168.236875 -166.80375 167.47375 -166.1875 166.6875 C-164.25203427 164.3096421 -162.38468972 162.53679613 -160.0625 160.5625 C-157.57427106 158.44289757 -155.35139138 156.36756642 -153.3125 153.8125 C-151.06695376 151.08143025 -148.75432191 149.1893328 -146 147 C-145.360625 146.195625 -144.72125 145.39125 -144.0625 144.5625 C-141.67244009 141.59303163 -138.92403212 139.43669344 -136 137 C-134.66172696 135.33729713 -133.32810215 133.67083819 -132 132 C-130.33333333 130.66666667 -128.66666667 129.33333333 -127 128 C-126.401875 127.236875 -125.80375 126.47375 -125.1875 125.6875 C-123.25203427 123.3096421 -121.38468972 121.53679613 -119.0625 119.5625 C-116.57427106 117.44289757 -114.35139138 115.36756642 -112.3125 112.8125 C-110.06695376 110.08143025 -107.75432191 108.1893328 -105 106 C-104.360625 105.195625 -103.72125 104.39125 -103.0625 103.5625 C-100.67244009 100.59303163 -97.92403212 98.43669344 -95 96 C-93.66172696 94.33729713 -92.32810215 92.67083819 -91 91 C-89.33333333 89.66666667 -87.66666667 88.33333333 -86 87 C-85.401875 86.236875 -84.80375 85.47375 -84.1875 84.6875 C-82.25203427 82.3096421 -80.38468972 80.53679613 -78.0625 78.5625 C-75.57427106 76.44289757 -73.35139138 74.36756642 -71.3125 71.8125 C-69.06695376 69.08143025 -66.75432191 67.1893328 -64 65 C-63.401875 64.236875 -62.80375 63.47375 -62.1875 62.6875 C-60.25203427 60.3096421 -58.38468972 58.53679613 -56.0625 56.5625 C-53.57427106 54.44289757 -51.35139138 52.36756642 -49.3125 49.8125 C-47.06695376 47.08143025 -44.75432191 45.1893328 -42 43 C-41.360625 42.195625 -40.72125 41.39125 -40.0625 40.5625 C-37.67244009 37.59303163 -34.92403212 35.43669344 -32 33 C-30.66172696 31.33729713 -29.32810215 29.67083819 -28 28 C-26.33333333 26.66666667 -24.66666667 25.33333333 -23 24 C-22.401875 23.236875 -21.80375 22.47375 -21.1875 21.6875 C-19.25203427 19.3096421 -17.38468972 17.53679613 -15.0625 15.5625 C-12.57427106 13.44289757 -10.35139138 11.36756642 -8.3125 8.8125 C-6.0778087 6.09463221 -3.76437182 4.15006697 -1 2 C-0.67 1.34 -0.34 0.68 0 0 Z " fill="#4A4A4B" transform="translate(449,216)"/>
</svg>
